<svg width="41" height="40" viewBox="0 0 41 40" fill="none" xmlns="http://www.w3.org/2000/svg">
<path d="M20.7318 40C9.70355 40 0.731995 35.2097 0.731995 29.3217H4.69239C4.69239 33.6454 11.8879 37.1625 20.7318 37.1625C29.5757 37.1625 36.7711 33.6454 36.7711 29.3217H40.7315C40.732 35.2097 31.7609 40 20.7318 40Z" fill="#4775B9"/>
<path d="M40.732 10.678H36.7716C36.7716 6.35493 29.5761 2.83748 20.7322 2.83748C11.8883 2.83748 4.69285 6.35459 4.69285 10.678H0.731995C0.731995 4.78998 9.70402 0 20.7318 0C31.7609 0 40.732 4.78998 40.732 10.678Z" fill="#4775B9"/>
<path d="M26.3091 24.2005L5.7058 13.5114L3.38264 15.809L23.9859 26.498L26.3091 24.2005Z" fill="#63BA90"/>
<path d="M38.2385 24.1844L17.6353 13.4954L15.3124 15.7926L35.9156 26.4817L38.2385 24.1844Z" fill="#63BA90"/>
</svg>
